<mxfile host="app.diagrams.net" modified="2023-12-07T10:05:55.055Z" agent="Mozilla/5.0 (Windows NT 10.0; Win64; x64) AppleWebKit/537.36 (KHTML, like Gecko) Chrome/119.0.0.0 Safari/537.36 Edg/119.0.0.0" etag="EROjHuyhd8P2xsTV9ZBY" version="22.1.7" type="device">
  <diagram name="Seite-1" id="vRPIshdqAlK-5x3ta-SM">
    <mxGraphModel dx="1386" dy="793" grid="1" gridSize="10" guides="1" tooltips="1" connect="1" arrows="1" fold="1" page="1" pageScale="1" pageWidth="1169" pageHeight="827" math="0" shadow="0">
      <root>
        <mxCell id="0" />
        <mxCell id="1" parent="0" />
        <mxCell id="rv8Uxp3a7vKKjtSpCl-k-1" value="Gantt-Diagramm Neunerln" style="rounded=0;whiteSpace=wrap;html=1;fillColor=#ffe6cc;strokeColor=#d79b00;" parent="1" vertex="1">
          <mxGeometry width="200" height="40" as="geometry" />
        </mxCell>
        <mxCell id="rv8Uxp3a7vKKjtSpCl-k-2" value="Projektstrukturplan" style="rounded=0;whiteSpace=wrap;html=1;fillColor=#ffe6cc;strokeColor=#d79b00;" parent="1" vertex="1">
          <mxGeometry y="40" width="200" height="40" as="geometry" />
        </mxCell>
        <mxCell id="rv8Uxp3a7vKKjtSpCl-k-3" value="Projektanforderungen überlegen" style="rounded=0;whiteSpace=wrap;html=1;fillColor=#ffe6cc;strokeColor=#d79b00;" parent="1" vertex="1">
          <mxGeometry y="80" width="200" height="40" as="geometry" />
        </mxCell>
        <mxCell id="rv8Uxp3a7vKKjtSpCl-k-4" value="Gantt-Diagramm " style="rounded=0;whiteSpace=wrap;html=1;fillColor=#ffe6cc;strokeColor=#d79b00;" parent="1" vertex="1">
          <mxGeometry y="120" width="200" height="40" as="geometry" />
        </mxCell>
        <mxCell id="rv8Uxp3a7vKKjtSpCl-k-5" value="Anwendungsfalldiagramm" style="rounded=0;whiteSpace=wrap;html=1;fillColor=#ffe6cc;strokeColor=#d79b00;" parent="1" vertex="1">
          <mxGeometry y="160" width="200" height="40" as="geometry" />
        </mxCell>
        <mxCell id="rv8Uxp3a7vKKjtSpCl-k-6" value="Klassendiagramm" style="rounded=0;whiteSpace=wrap;html=1;fillColor=#ffe6cc;strokeColor=#d79b00;" parent="1" vertex="1">
          <mxGeometry y="200" width="200" height="40" as="geometry" />
        </mxCell>
        <mxCell id="rv8Uxp3a7vKKjtSpCl-k-7" value="Kartendesign" style="rounded=0;whiteSpace=wrap;html=1;fillColor=#ffe6cc;strokeColor=#d79b00;" parent="1" vertex="1">
          <mxGeometry y="240" width="200" height="40" as="geometry" />
        </mxCell>
        <mxCell id="rv8Uxp3a7vKKjtSpCl-k-8" value="Spielfelddesign" style="rounded=0;whiteSpace=wrap;html=1;fillColor=#ffe6cc;strokeColor=#d79b00;" parent="1" vertex="1">
          <mxGeometry y="280" width="200" height="40" as="geometry" />
        </mxCell>
        <mxCell id="rv8Uxp3a7vKKjtSpCl-k-9" value="Spiellogik" style="rounded=0;whiteSpace=wrap;html=1;fillColor=#ffe6cc;strokeColor=#d79b00;" parent="1" vertex="1">
          <mxGeometry y="320" width="200" height="40" as="geometry" />
        </mxCell>
        <mxCell id="rv8Uxp3a7vKKjtSpCl-k-10" value="Datenbank" style="rounded=0;whiteSpace=wrap;html=1;fillColor=#ffe6cc;strokeColor=#d79b00;" parent="1" vertex="1">
          <mxGeometry y="360" width="200" height="40" as="geometry" />
        </mxCell>
        <mxCell id="rv8Uxp3a7vKKjtSpCl-k-11" value="Unit-Test" style="rounded=0;whiteSpace=wrap;html=1;fillColor=#ffe6cc;strokeColor=#d79b00;" parent="1" vertex="1">
          <mxGeometry y="440" width="200" height="40" as="geometry" />
        </mxCell>
        <mxCell id="rv8Uxp3a7vKKjtSpCl-k-12" value="Dokumentation und Präsentation ausarbeiten" style="rounded=0;whiteSpace=wrap;html=1;fillColor=#ffe6cc;strokeColor=#d79b00;" parent="1" vertex="1">
          <mxGeometry y="520" width="200" height="40" as="geometry" />
        </mxCell>
        <mxCell id="rv8Uxp3a7vKKjtSpCl-k-58" value="" style="rounded=0;whiteSpace=wrap;html=1;fillColor=#dae8fc;strokeColor=#6c8ebf;" parent="1" vertex="1">
          <mxGeometry x="200" y="50" width="180" height="20" as="geometry" />
        </mxCell>
        <mxCell id="rv8Uxp3a7vKKjtSpCl-k-59" value="" style="rounded=0;whiteSpace=wrap;html=1;fillColor=#dae8fc;strokeColor=#6c8ebf;" parent="1" vertex="1">
          <mxGeometry x="200" y="90" width="180" height="20" as="geometry" />
        </mxCell>
        <mxCell id="rv8Uxp3a7vKKjtSpCl-k-60" value="" style="rounded=0;whiteSpace=wrap;html=1;fillColor=#dae8fc;strokeColor=#6c8ebf;" parent="1" vertex="1">
          <mxGeometry x="280" y="130" width="140" height="20" as="geometry" />
        </mxCell>
        <mxCell id="rv8Uxp3a7vKKjtSpCl-k-61" value="" style="rounded=0;whiteSpace=wrap;html=1;fillColor=#dae8fc;strokeColor=#6c8ebf;" parent="1" vertex="1">
          <mxGeometry x="320" y="170" width="110" height="20" as="geometry" />
        </mxCell>
        <mxCell id="rv8Uxp3a7vKKjtSpCl-k-62" value="" style="rounded=0;whiteSpace=wrap;html=1;fillColor=#dae8fc;strokeColor=#6c8ebf;" parent="1" vertex="1">
          <mxGeometry x="320" y="210" width="110" height="20" as="geometry" />
        </mxCell>
        <mxCell id="rv8Uxp3a7vKKjtSpCl-k-63" value="" style="rounded=0;whiteSpace=wrap;html=1;fillColor=#dae8fc;strokeColor=#6c8ebf;" parent="1" vertex="1">
          <mxGeometry x="430" y="250" width="490" height="20" as="geometry" />
        </mxCell>
        <mxCell id="rv8Uxp3a7vKKjtSpCl-k-64" value="" style="rounded=0;whiteSpace=wrap;html=1;fillColor=#dae8fc;strokeColor=#6c8ebf;" parent="1" vertex="1">
          <mxGeometry x="430" y="290" width="490" height="20" as="geometry" />
        </mxCell>
        <mxCell id="rv8Uxp3a7vKKjtSpCl-k-795" value="KW 48" style="rounded=0;whiteSpace=wrap;html=1;fillColor=#ffe6cc;strokeColor=#d79b00;" parent="1" vertex="1">
          <mxGeometry x="200" width="120" height="40" as="geometry" />
        </mxCell>
        <mxCell id="rv8Uxp3a7vKKjtSpCl-k-796" value="KW 49" style="rounded=0;whiteSpace=wrap;html=1;fillColor=#ffe6cc;strokeColor=#d79b00;" parent="1" vertex="1">
          <mxGeometry x="320" width="120" height="40" as="geometry" />
        </mxCell>
        <mxCell id="rv8Uxp3a7vKKjtSpCl-k-797" value="KW 51" style="rounded=0;whiteSpace=wrap;html=1;fillColor=#ffe6cc;strokeColor=#d79b00;" parent="1" vertex="1">
          <mxGeometry x="560" width="120" height="40" as="geometry" />
        </mxCell>
        <mxCell id="rv8Uxp3a7vKKjtSpCl-k-798" value="KW 50" style="rounded=0;whiteSpace=wrap;html=1;fillColor=#ffe6cc;strokeColor=#d79b00;" parent="1" vertex="1">
          <mxGeometry x="440" width="120" height="40" as="geometry" />
        </mxCell>
        <mxCell id="rv8Uxp3a7vKKjtSpCl-k-799" value="KW 52" style="rounded=0;whiteSpace=wrap;html=1;fillColor=#ffe6cc;strokeColor=#d79b00;" parent="1" vertex="1">
          <mxGeometry x="680" width="120" height="40" as="geometry" />
        </mxCell>
        <mxCell id="rv8Uxp3a7vKKjtSpCl-k-800" value="KW 01" style="rounded=0;whiteSpace=wrap;html=1;fillColor=#ffe6cc;strokeColor=#d79b00;" parent="1" vertex="1">
          <mxGeometry x="800" width="120" height="40" as="geometry" />
        </mxCell>
        <mxCell id="rv8Uxp3a7vKKjtSpCl-k-801" value="KW 03" style="rounded=0;whiteSpace=wrap;html=1;fillColor=#ffe6cc;strokeColor=#d79b00;" parent="1" vertex="1">
          <mxGeometry x="1040" width="120" height="40" as="geometry" />
        </mxCell>
        <mxCell id="rv8Uxp3a7vKKjtSpCl-k-802" value="KW 02" style="rounded=0;whiteSpace=wrap;html=1;fillColor=#ffe6cc;strokeColor=#d79b00;" parent="1" vertex="1">
          <mxGeometry x="920" width="120" height="40" as="geometry" />
        </mxCell>
        <mxCell id="rv8Uxp3a7vKKjtSpCl-k-803" value="KW 04" style="rounded=0;whiteSpace=wrap;html=1;fillColor=#ffe6cc;strokeColor=#d79b00;" parent="1" vertex="1">
          <mxGeometry x="1160" width="120" height="40" as="geometry" />
        </mxCell>
        <mxCell id="rv8Uxp3a7vKKjtSpCl-k-804" value="Backend (Verbindung Frontend mit Datenbank)" style="rounded=0;whiteSpace=wrap;html=1;fillColor=#ffe6cc;strokeColor=#d79b00;" parent="1" vertex="1">
          <mxGeometry y="400" width="200" height="40" as="geometry" />
        </mxCell>
        <mxCell id="rv8Uxp3a7vKKjtSpCl-k-805" value="" style="rounded=0;whiteSpace=wrap;html=1;fillColor=#dae8fc;strokeColor=#6c8ebf;" parent="1" vertex="1">
          <mxGeometry x="620" y="330" width="600" height="20" as="geometry" />
        </mxCell>
        <mxCell id="rv8Uxp3a7vKKjtSpCl-k-806" value="" style="rounded=0;whiteSpace=wrap;html=1;fillColor=#dae8fc;strokeColor=#6c8ebf;" parent="1" vertex="1">
          <mxGeometry x="920" y="370" width="360" height="20" as="geometry" />
        </mxCell>
        <mxCell id="rv8Uxp3a7vKKjtSpCl-k-807" value="" style="rounded=0;whiteSpace=wrap;html=1;fillColor=#dae8fc;strokeColor=#6c8ebf;" parent="1" vertex="1">
          <mxGeometry x="1280" y="410" width="320" height="20" as="geometry" />
        </mxCell>
        <mxCell id="rv8Uxp3a7vKKjtSpCl-k-808" value="KW 05" style="rounded=0;whiteSpace=wrap;html=1;fillColor=#ffe6cc;strokeColor=#d79b00;" parent="1" vertex="1">
          <mxGeometry x="1280" width="120" height="40" as="geometry" />
        </mxCell>
        <mxCell id="rv8Uxp3a7vKKjtSpCl-k-809" value="KW 06" style="rounded=0;whiteSpace=wrap;html=1;fillColor=#ffe6cc;strokeColor=#d79b00;" parent="1" vertex="1">
          <mxGeometry x="1400" width="120" height="40" as="geometry" />
        </mxCell>
        <mxCell id="rv8Uxp3a7vKKjtSpCl-k-810" value="" style="rounded=0;whiteSpace=wrap;html=1;fillColor=#dae8fc;strokeColor=#6c8ebf;" parent="1" vertex="1">
          <mxGeometry x="1600" y="530" width="280" height="20" as="geometry" />
        </mxCell>
        <mxCell id="rv8Uxp3a7vKKjtSpCl-k-811" value="KW 08" style="rounded=0;whiteSpace=wrap;html=1;fillColor=#ffe6cc;strokeColor=#d79b00;" parent="1" vertex="1">
          <mxGeometry x="1520" width="120" height="40" as="geometry" />
        </mxCell>
        <mxCell id="rv8Uxp3a7vKKjtSpCl-k-812" value="Integrationstests" style="rounded=0;whiteSpace=wrap;html=1;fillColor=#ffe6cc;strokeColor=#d79b00;" parent="1" vertex="1">
          <mxGeometry y="480" width="200" height="40" as="geometry" />
        </mxCell>
        <mxCell id="rv8Uxp3a7vKKjtSpCl-k-814" value="" style="rounded=0;whiteSpace=wrap;html=1;fillColor=#dae8fc;strokeColor=#6c8ebf;" parent="1" vertex="1">
          <mxGeometry x="620" y="450" width="980" height="20" as="geometry" />
        </mxCell>
        <mxCell id="rv8Uxp3a7vKKjtSpCl-k-815" value="" style="rounded=0;whiteSpace=wrap;html=1;fillColor=#dae8fc;strokeColor=#6c8ebf;" parent="1" vertex="1">
          <mxGeometry x="1280" y="500" width="320" height="20" as="geometry" />
        </mxCell>
        <mxCell id="rJzw6xWw92MW9jTJhdVK-14" value="" style="endArrow=classic;html=1;rounded=0;entryX=0;entryY=0.5;entryDx=0;entryDy=0;exitX=1;exitY=0.5;exitDx=0;exitDy=0;" parent="1" source="rv8Uxp3a7vKKjtSpCl-k-806" target="rv8Uxp3a7vKKjtSpCl-k-815" edge="1">
          <mxGeometry width="50" height="50" relative="1" as="geometry">
            <mxPoint x="1140" y="390" as="sourcePoint" />
            <mxPoint x="1190" y="340" as="targetPoint" />
            <Array as="points" />
          </mxGeometry>
        </mxCell>
        <mxCell id="rJzw6xWw92MW9jTJhdVK-15" value="" style="endArrow=classic;html=1;rounded=0;entryX=0;entryY=0.5;entryDx=0;entryDy=0;exitX=1;exitY=1;exitDx=0;exitDy=0;" parent="1" source="rv8Uxp3a7vKKjtSpCl-k-815" target="rv8Uxp3a7vKKjtSpCl-k-810" edge="1">
          <mxGeometry width="50" height="50" relative="1" as="geometry">
            <mxPoint x="1380" y="510" as="sourcePoint" />
            <mxPoint x="1430" y="460" as="targetPoint" />
            <Array as="points" />
          </mxGeometry>
        </mxCell>
        <mxCell id="rJzw6xWw92MW9jTJhdVK-18" value="" style="endArrow=classic;html=1;rounded=0;entryX=0;entryY=0.5;entryDx=0;entryDy=0;exitX=1;exitY=1;exitDx=0;exitDy=0;" parent="1" source="rv8Uxp3a7vKKjtSpCl-k-62" target="rv8Uxp3a7vKKjtSpCl-k-63" edge="1">
          <mxGeometry width="50" height="50" relative="1" as="geometry">
            <mxPoint x="414" y="230" as="sourcePoint" />
            <mxPoint x="464" y="180" as="targetPoint" />
            <Array as="points" />
          </mxGeometry>
        </mxCell>
        <mxCell id="rJzw6xWw92MW9jTJhdVK-19" value="" style="endArrow=classic;html=1;rounded=0;entryX=0;entryY=0.5;entryDx=0;entryDy=0;exitX=1;exitY=1;exitDx=0;exitDy=0;" parent="1" source="rv8Uxp3a7vKKjtSpCl-k-62" target="rv8Uxp3a7vKKjtSpCl-k-64" edge="1">
          <mxGeometry width="50" height="50" relative="1" as="geometry">
            <mxPoint x="414" y="230" as="sourcePoint" />
            <mxPoint x="464" y="180" as="targetPoint" />
            <Array as="points">
              <mxPoint x="430" y="270" />
            </Array>
          </mxGeometry>
        </mxCell>
        <mxCell id="rJzw6xWw92MW9jTJhdVK-20" value="" style="endArrow=classic;html=1;rounded=0;exitX=1;exitY=0.5;exitDx=0;exitDy=0;" parent="1" edge="1">
          <mxGeometry width="50" height="50" relative="1" as="geometry">
            <mxPoint x="1280" y="380" as="sourcePoint" />
            <mxPoint x="1280" y="420" as="targetPoint" />
            <Array as="points" />
          </mxGeometry>
        </mxCell>
        <mxCell id="rJzw6xWw92MW9jTJhdVK-21" value="" style="endArrow=classic;html=1;rounded=0;entryX=0;entryY=0.5;entryDx=0;entryDy=0;exitX=1;exitY=0.5;exitDx=0;exitDy=0;" parent="1" source="rv8Uxp3a7vKKjtSpCl-k-61" edge="1">
          <mxGeometry width="50" height="50" relative="1" as="geometry">
            <mxPoint x="430" y="180" as="sourcePoint" />
            <mxPoint x="430" y="260" as="targetPoint" />
            <Array as="points">
              <mxPoint x="430" y="180" />
              <mxPoint x="430" y="230" />
            </Array>
          </mxGeometry>
        </mxCell>
        <mxCell id="rJzw6xWw92MW9jTJhdVK-23" value="" style="endArrow=classic;html=1;rounded=0;exitX=1;exitY=0.5;exitDx=0;exitDy=0;" parent="1" edge="1">
          <mxGeometry width="50" height="50" relative="1" as="geometry">
            <mxPoint x="420" y="140" as="sourcePoint" />
            <mxPoint x="430" y="260" as="targetPoint" />
            <Array as="points">
              <mxPoint x="430" y="140" />
              <mxPoint x="430" y="190" />
            </Array>
          </mxGeometry>
        </mxCell>
        <mxCell id="rJzw6xWw92MW9jTJhdVK-24" value="" style="endArrow=classic;html=1;rounded=0;exitX=1;exitY=0.5;exitDx=0;exitDy=0;" parent="1" source="rv8Uxp3a7vKKjtSpCl-k-59" edge="1">
          <mxGeometry width="50" height="50" relative="1" as="geometry">
            <mxPoint x="420" y="100" as="sourcePoint" />
            <mxPoint x="430" y="260" as="targetPoint" />
            <Array as="points">
              <mxPoint x="430" y="100" />
              <mxPoint x="430" y="150" />
            </Array>
          </mxGeometry>
        </mxCell>
        <mxCell id="rJzw6xWw92MW9jTJhdVK-25" value="" style="endArrow=classic;html=1;rounded=0;exitX=1;exitY=0.5;exitDx=0;exitDy=0;" parent="1" edge="1">
          <mxGeometry width="50" height="50" relative="1" as="geometry">
            <mxPoint x="380" y="60" as="sourcePoint" />
            <mxPoint x="430" y="260" as="targetPoint" />
            <Array as="points">
              <mxPoint x="430" y="60" />
              <mxPoint x="430" y="110" />
            </Array>
          </mxGeometry>
        </mxCell>
        <mxCell id="rJzw6xWw92MW9jTJhdVK-26" value="" style="endArrow=classic;html=1;rounded=0;" parent="1" edge="1">
          <mxGeometry width="50" height="50" relative="1" as="geometry">
            <mxPoint x="919" y="300" as="sourcePoint" />
            <mxPoint x="919" y="380" as="targetPoint" />
            <Array as="points">
              <mxPoint x="919" y="260" />
              <mxPoint x="919" y="300" />
              <mxPoint x="919" y="350" />
            </Array>
          </mxGeometry>
        </mxCell>
        <mxCell id="rJzw6xWw92MW9jTJhdVK-27" value="" style="endArrow=classic;html=1;rounded=0;exitX=1;exitY=0.5;exitDx=0;exitDy=0;" parent="1" source="rv8Uxp3a7vKKjtSpCl-k-807" edge="1">
          <mxGeometry width="50" height="50" relative="1" as="geometry">
            <mxPoint x="1400" y="440" as="sourcePoint" />
            <mxPoint x="1600" y="540" as="targetPoint" />
            <Array as="points" />
          </mxGeometry>
        </mxCell>
        <mxCell id="53PPSKjS8g7nxJ0rT1Gh-1" value="KW 09" style="rounded=0;whiteSpace=wrap;html=1;fillColor=#ffe6cc;strokeColor=#d79b00;" vertex="1" parent="1">
          <mxGeometry x="1640" width="120" height="40" as="geometry" />
        </mxCell>
        <mxCell id="53PPSKjS8g7nxJ0rT1Gh-2" value="KW 10" style="rounded=0;whiteSpace=wrap;html=1;fillColor=#ffe6cc;strokeColor=#d79b00;" vertex="1" parent="1">
          <mxGeometry x="1760" width="120" height="40" as="geometry" />
        </mxCell>
      </root>
    </mxGraphModel>
  </diagram>
</mxfile>
